<svg width="40" height="40" viewBox="0 0 40 40" fill="none" xmlns="http://www.w3.org/2000/svg">
<g clip-path="url(#clip0_9_2)">
<path d="M33.3333 29.1667C33.9754 29.167 34.5927 29.4143 35.0573 29.8574C35.522 30.3004 35.7984 30.9052 35.8292 31.5465C35.8601 32.1878 35.643 32.8164 35.223 33.302C34.8031 33.7876 34.2124 34.093 33.5733 34.155L33.3333 34.1667H6.66666C6.02464 34.1664 5.40734 33.919 4.94269 33.476C4.47803 33.0329 4.20164 32.4281 4.17079 31.7868C4.13994 31.1455 4.35698 30.5169 4.77696 30.0313C5.19693 29.5457 5.78763 29.2403 6.42666 29.1783L6.66666 29.1667H33.3333ZM33.3333 17.5C33.9964 17.5 34.6323 17.7634 35.1011 18.2322C35.5699 18.7011 35.8333 19.337 35.8333 20C35.8333 20.663 35.5699 21.2989 35.1011 21.7678C34.6323 22.2366 33.9964 22.5 33.3333 22.5H6.66666C6.00362 22.5 5.36774 22.2366 4.8989 21.7678C4.43006 21.2989 4.16666 20.663 4.16666 20C4.16666 19.337 4.43006 18.7011 4.8989 18.2322C5.36774 17.7634 6.00362 17.5 6.66666 17.5H33.3333ZM33.3333 5.83333C33.9964 5.83333 34.6323 6.09673 35.1011 6.56557C35.5699 7.03441 35.8333 7.67029 35.8333 8.33333C35.8333 8.99638 35.5699 9.63226 35.1011 10.1011C34.6323 10.5699 33.9964 10.8333 33.3333 10.8333H6.66666C6.00362 10.8333 5.36774 10.5699 4.8989 10.1011C4.43006 9.63226 4.16666 8.99638 4.16666 8.33333C4.16666 7.67029 4.43006 7.03441 4.8989 6.56557C5.36774 6.09673 6.00362 5.83333 6.66666 5.83333H33.3333Z" fill="#340000"/>
</g>
<defs>
<clipPath id="clip0_9_2">
<rect width="40" height="40" fill="white"/>
</clipPath>
</defs>
</svg>
