<svg width="40" height="70" viewBox="0 0 40 70" fill="none" xmlns="http://www.w3.org/2000/svg">
<path fill-rule="evenodd" clip-rule="evenodd" d="M30.0239 8.75C30.0239 6.42936 28.9728 4.20376 27.1018 2.56282C25.2307 0.921873 22.6931 0 20.0471 0C17.401 0 14.8634 0.921873 12.9924 2.56282C11.1213 4.20376 10.0702 6.42936 10.0702 8.75C10.0702 11.0706 11.1213 13.2962 12.9924 14.9372C14.8634 16.5781 17.401 17.5 20.0471 17.5C22.6931 17.5 25.2307 16.5781 27.1018 14.9372C28.9728 13.2962 30.0239 11.0706 30.0239 8.75ZM38.9033 47.4294C38.2018 48.0438 37.2509 48.389 36.2595 48.389C35.268 48.389 34.3171 48.0438 33.6156 47.4294L23.7884 38.8106V66.7188C23.7884 67.589 23.3942 68.4236 22.6926 69.0389C21.9909 69.6543 21.0393 70 20.0471 70C19.0548 70 18.1032 69.6543 17.4015 69.0389C16.6999 68.4236 16.3057 67.589 16.3057 66.7188V38.8106L6.47852 47.4294C6.13601 47.7518 5.72296 48.0103 5.26403 48.1897C4.80509 48.369 4.30968 48.4654 3.80733 48.4732C3.30498 48.481 2.80599 48.3999 2.34013 48.2349C1.87427 48.0699 1.45108 47.8243 1.09581 47.5127C0.740539 47.2011 0.460465 46.8299 0.272297 46.4214C0.0841278 46.0128 -0.00828112 45.5752 0.000582256 45.1346C0.00944563 44.694 0.1194 44.2595 0.323885 43.857C0.528371 43.4545 0.823198 43.0923 1.19078 42.7919L17.4032 28.5731L20.0471 26.25L22.6909 28.5688L38.9033 42.7875C39.251 43.0922 39.5268 43.454 39.715 43.8523C39.9031 44.2505 40 44.6774 40 45.1084C40 45.5395 39.9031 45.9664 39.715 46.3646C39.5268 46.7628 39.251 47.1247 38.9033 47.4294Z" fill="#C691AE"/>
</svg>
